<?xml version="1.0" encoding="UTF-8" standalone="no"?>
<svg xmlns="http://www.w3.org/2000/svg" xmlns:xlink="http://www.w3.org/1999/xlink" width="48" height="48" version="1.0">
  <defs>
    <linearGradient id="h">
      <stop offset="0" stop-color="#5b5b5b"/>
      <stop offset=".5" stop-color="#979797"/>
      <stop offset="1" stop-color="#454545"/>
    </linearGradient>
    <linearGradient id="f">
      <stop offset="0" stop-color="#ef2929"/>
      <stop offset=".5" stop-color="#f79090"/>
      <stop offset="1" stop-color="#ef2929"/>
    </linearGradient>
    <linearGradient xlink:href="#a" id="j" x1="32.169682" x2="36.310467" y1="32.340691" y2="37.614323" gradientTransform="matrix(.9558 .12561 -.13219 1.00584 8.433071 -4.87925)" gradientUnits="userSpaceOnUse"/>
    <linearGradient xlink:href="#b" id="k" x1="16.920895" x2="14.717065" y1="41.527054" y2="27.556486" gradientTransform="translate(-.386129 -2.59755)" gradientUnits="userSpaceOnUse"/>
    <linearGradient id="c">
      <stop offset="0" stop-color="#fff" stop-opacity=".69072163"/>
      <stop offset="1" stop-opacity="0"/>
    </linearGradient>
    <linearGradient xlink:href="#c" id="l" x1="5.5588484" x2="26.936853" y1="8.7893238" y2="48.565983" gradientTransform="matrix(1.01569 0 0 1 -.427129 -2.59755)" gradientUnits="userSpaceOnUse"/>
    <linearGradient id="b">
      <stop offset="0" stop-color="#788492"/>
      <stop offset="1" stop-color="#fafafa"/>
    </linearGradient>
    <linearGradient xlink:href="#b" id="m" x1="5.4860573" x2="12.296931" y1="32.173634" y2="27.665829" gradientTransform="matrix(1.29092 0 0 1.1733 -3.854317 -8.380223)" gradientUnits="userSpaceOnUse"/>
    <linearGradient xlink:href="#d" id="n" x1="34.868965" x2="34.868965" y1="39.944828" y2="43.475861" gradientTransform="translate(-.386129 -2.59755)" gradientUnits="userSpaceOnUse"/>
    <linearGradient xlink:href="#d" id="o" x1="36.634483" x2="36.634483" y1="38.124138" y2="42.427586" gradientTransform="translate(-.386129 -2.59755)" gradientUnits="userSpaceOnUse"/>
    <linearGradient xlink:href="#d" id="p" x1="38.896549" x2="42.427586" y1="38.482758" y2="38.482758" gradientTransform="translate(-.386129 -2.59755)" gradientUnits="userSpaceOnUse"/>
    <linearGradient id="d">
      <stop offset="0"/>
      <stop offset="1" stop-opacity="0"/>
    </linearGradient>
    <linearGradient xlink:href="#d" id="q" x1="40.496552" x2="44.193104" y1="37.848274" y2="37.848274" gradientTransform="matrix(.86474 0 0 .7531 5.591471 7.01265)" gradientUnits="userSpaceOnUse"/>
    <linearGradient xlink:href="#e" id="r" x1="-5.2845793" x2="33.728188" y1="19.362175" y2="66.499512" gradientTransform="matrix(.9436 0 0 .96337 6.792471 4.03365)" gradientUnits="userSpaceOnUse"/>
    <linearGradient id="a">
      <stop offset="0"/>
      <stop offset="1" stop-color="#505050"/>
    </linearGradient>
    <linearGradient xlink:href="#a" id="w" x1="26.247757" x2="23.782515" y1="38.03194" y2="36.457325" gradientTransform="matrix(0 .96742 .94617 0 -16.09433 2.21785)" gradientUnits="userSpaceOnUse"/>
    <linearGradient id="e">
      <stop offset="0" stop-color="#fff" stop-opacity=".45038167"/>
      <stop offset="1" stop-color="#fff" stop-opacity=".31297711"/>
    </linearGradient>
    <linearGradient xlink:href="#e" id="x" x1="29.425014" x2="43.14069" y1="33.593369" y2="38.189564" gradientTransform="translate(-14.76113 -7.34755)" gradientUnits="userSpaceOnUse"/>
    <linearGradient id="i">
      <stop offset="0" stop-opacity=".17557251"/>
      <stop offset="1" stop-opacity="0"/>
    </linearGradient>
    <linearGradient id="g">
      <stop offset="0" stop-color="#ddd"/>
      <stop offset=".33333334" stop-color="#fff"/>
      <stop offset=".66666669" stop-color="#b7b7b7"/>
      <stop offset="1" stop-color="#ddd"/>
    </linearGradient>
    <linearGradient xlink:href="#f" id="s" x1="2.1018243" x2="4.1351514" y1="43.936359" y2="45.880901" gradientUnits="userSpaceOnUse"/>
    <linearGradient xlink:href="#g" id="t" x1="19.394735" x2="22.225447" y1="30.001331" y2="32.643337" gradientTransform="translate(-13.78039 10.12853)" gradientUnits="userSpaceOnUse"/>
    <linearGradient xlink:href="#h" id="u" x1="27.847828" x2="29.623844" y1="16.542765" y2="18.266338" gradientTransform="translate(11.0575 -11.78)" gradientUnits="userSpaceOnUse"/>
    <linearGradient xlink:href="#g" id="v" x1="19.394735" x2="22.225447" y1="30.001331" y2="32.643337" gradientTransform="rotate(10 -6.28336218 -37.32973119)" gradientUnits="userSpaceOnUse"/>
    <radialGradient xlink:href="#i" id="y" cx="20.152544" cy="33.636894" r="15.291184" fx="20.152544" fy="33.636894" gradientTransform="matrix(1 0 0 .25722 0 24.98463)" gradientUnits="userSpaceOnUse"/>
  </defs>
  <path fill="url(#j)" fill-rule="evenodd" stroke="#000" d="M1.7363208 32.76676c6.58853 1.98434 16.2355502-.80576 20.3975902-3.02326 8.15311-4.34393 11.55159 1.55978 12.66753 2.31089 1.72924 1.48159-3.5638 5.53478-3.22833 8.83486.18621 1.83184.932 2.72651.932 2.72651 1.46022-4.13412 6.07551-2.43828 5.80977-6.74006 3.50411 1.97766 4.2558-1.1722 8.3216-.54462-.57459-.87503-1.31621-2.17831-2.91057-2.86145-1.69942-.63742-4.57206-.54847-5.31811-2.71677-.1362-2.45254-.09908-15.53577-6.01899-19.53543-.86489-1.7421598.06845-4.2244799 1.75168-5.9204199 1.522-1.5335 3.80827-2.94569 4.59083-3.8463-3.5426-.03808-7.07151 1.0716-10.52618 2.94063-1.80159.97469-3.38797 2.37611-4.51234 2.90059C13.541991 5.2789001 2.3520908 13.65739 1.2225508 28.3597c-.09115 1.1865-.07306 4.03942.51377 4.40706z"/>
  <path fill="url(#k)" fill-rule="evenodd" d="M5.2335808 32.81055c6.3892002.69308 12.9759102-1.97199 17.0373802-3.84061 7.07453-3.30094 10.28132.17682 11.86465 1.69592.17329.23408.17166-1.59232-1.70203-2.79383-7.53362-3.53451 2.02809-3.56609 1.5203-4.86389-.58423-1.49315-6.96257-.63649-8.07545-.25378-4.0001 1.37561-5.40659 3.6149-7.43981 4.03179-3.74463.71235-6.63769-1.31015-9.0052403 1.64618-4.1386599 5.1679-4.8463999 4.30808-4.1997999 4.37822z"/>
  <path fill="url(#l)" fill-rule="evenodd" d="M2.2770308 32.01551c2.5439-7.36912 11.1696102-6.9389 14.5778002-10.44806 3.35347-3.45282 7.11695-14.2456699 19.70562-2.85579.04602.04163-1.98504-5.79477-4.82186-7.72135-.82891-1.6783498-6.88785-3.6682799-7.96544-3.1630099C13.337511 5.8880001 2.9583508 14.66672 1.8758008 28.91892c-.08682 1.14308-.16119 2.74242.40123 3.09659z"/>
  <path fill="url(#m)" fill-rule="evenodd" d="M8.1097416 25.842531c-.6737823-.958195 2.6295644-4.353664 3.8020804-3.673071.71708 1.040291-2.310126 4.897428-3.8020804 3.673071z"/>
  <path fill="url(#n)" fill-rule="evenodd" d="m34.151781 40.87835.66206-.49656-.05517-3.03448-.60689 3.53104z" opacity=".25628142"/>
  <path fill="url(#o)" fill-rule="evenodd" d="m35.862121 39.83007.77241-.38621-.49655-3.91724-.27586 4.30345z" opacity=".25125631"/>
  <path fill="url(#p)" fill-rule="evenodd" d="m41.158671 36.9611.88276-.33103-3.53103-1.82069 2.64827 2.15172z" opacity=".23115575"/>
  <path fill="url(#q)" fill-rule="evenodd" d="m42.900461 36.32662.90649-.2493-3.19655-1.37117 2.29006 1.62047z" opacity=".22613065"/>
  <path fill="none" stroke="url(#r)" stroke-width=".95343304" d="M2.8895108 32.01551c5.9517499 1.5581 14.5243202-1.1298 18.4515902-3.26608 7.69325-4.18482 13.64008 1.59103 14.33952 3.28691 1.18976 1.6041-1.21021 3.73034-2.74982 6.82116-.79074 1.58743-.35801 2.53825-.35801 2.53825 1.34661-1.94884 5.64-1.12225 4.6705-6.23338 3.89393 2.89894 5.18088.1457 7.47814.1619-.72968-.93673-1.5295-.97091-2.31517-1.16028-1.60357-.61408-3.9231-.55872-4.97082-3.11634-.12851-2.36272.49398-13.99447-5.79913-19.17346-1.08127-1.3248-.91076-3.9220299.76899-6.1455199.49549-.65587 2.44442-2.21908 3.18285-3.0867-3.07763.58204-4.37456 1.12074-7.63437 2.92132-1.69997.93898-2.84333 2.20068-3.90428 2.70595C14.206081 6.5067201 4.6196108 13.42929 2.4047308 27.23954c-.18152 1.13181-.33411 4.4218.48478 4.77597z"/>
  <g stroke-linecap="round" color="#000" transform="rotate(10 22.1279267 22.94096988)">
    <g transform="translate(3.782059 -4.305959)">
      <path fill="url(#s)" stroke="#c00" d="m3.6678274 43.136096 1.71599 1.580267c1.049938-1.200444 5.8079396-6.277651 5.8079396-6.277651l-1.7369201-1.515676s-4.5092445 4.850979-5.7870095 6.21306z" overflow="visible" style="marker:none"/>
      <path fill="url(#t)" stroke="#888a85" d="m9.3798921 36.977632 1.7159899 1.580267c1.049938-1.200444 21.623635-23.107114 21.623635-23.107114l-1.73692-1.515676S10.657657 35.615551 9.3798921 36.977632z" overflow="visible" style="marker:none"/>
    </g>
    <path fill="url(#u)" stroke="#2e3436" d="m34.676553 9.7053399 1.77849 1.4552671C37.504981 9.9601639 41.783263 5.5878763 42.1 5.110676c1.114868-.9896967-.606597-2.7365621-1.79942-1.390676-.56687.5405973-4.346262 4.6232589-5.624027 5.9853399z" overflow="visible" style="marker:none"/>
  </g>
  <path fill="url(#v)" stroke="#888a85" stroke-linecap="round" d="M3.1259863 37.385763c-1.396183 1.245858-.440291 2.771638 1.415509 1.854237.3578266-.172963 1.9496265-1.469565 1.9496265-1.469565L5.024554 35.956942s-.4036927.309314-1.8985677 1.428821z" color="#000" overflow="visible" style="marker:none"/>
  <path fill="none" stroke="#2e3436" d="M45.38 7.76s5 10 0 10 .250004-5.000004 0-10z"/>
  <path fill="#fff" d="M8.8749989 37.75a1.2499999 1.2499999 0 1 1-2.4999997 0 1.2499999 1.2499999 0 1 1 2.4999997 0z" color="#000" opacity=".53333285" overflow="visible" style="marker:none" transform="translate(1.543598 29.32319) scale(.23787)"/>
  <path fill="url(#w)" fill-rule="evenodd" stroke="#000" stroke-width=".96744114" d="M19.450291 23.22383c2.71813 1.81279 9.4059 7.35877 6.23018 8.18601-10.62122-.38973-8.78372-5.14216-11.49751-5.87616-1.4638-1.484 3.7992-2.99764 5.26733-2.30985z"/>
  <path fill="none" stroke="url(#x)" stroke-width=".96744114" d="M19.146461 24.13864c2.23199 1.63601 7.41717 5.67939 6.05341 6.46243-4.09527-.54841-6.17882-1.15527-7.25011-2.34494-1.34687-1.49569-1.78565-2.85486-2.789-3.22186-.22636.0186 2.51757-1.58342 3.9857-.89563z"/>
  <path fill="url(#y)" fill-rule="evenodd" d="M35.443728 33.636894a15.291184 3.9332814 0 1 1-30.5823684 0 15.291184 3.9332814 0 1 1 30.5823684 0z" color="#000" overflow="visible" style="marker:none" transform="matrix(1.476 0 0 .71076 -6.402967 20.77848)"/>
</svg>